<svg id="Layer_1" data-name="Layer 1" xmlns="http://www.w3.org/2000/svg" viewBox="0 0 724.2 316.05"><defs><style>.cls-1{fill:#242424;}</style></defs><title>MW_logo_mark_sort</title><polygon class="cls-1" points="160.47 313.97 251.61 313.97 106.18 2.09 60.61 99.82 160.47 313.97"/><polygon class="cls-1" points="312.98 313.97 404.13 313.97 258.7 2.09 213.13 99.82 312.98 313.97"/><path class="cls-1" d="M102.18,415.81c-21.55,0-39.09,17.27-39.09,38.5s17.54,38.51,39.09,38.51,39.09-17.27,39.09-38.51S123.74,415.81,102.18,415.81Z" transform="translate(-63.09 -176.76)"/><polygon class="cls-1" points="472.59 2.09 618.02 313.97 663.59 216.23 563.73 2.09 472.59 2.09"/><polygon class="cls-1" points="320.07 2.09 465.5 313.97 511.07 216.23 411.22 2.09 320.07 2.09"/><path class="cls-1" d="M748.21,176.76c-21.55,0-39.09,17.27-39.09,38.51s17.54,38.5,39.09,38.5,39.09-17.27,39.09-38.5S769.76,176.76,748.21,176.76Z" transform="translate(-63.09 -176.76)"/></svg>