<?xml version="1.0" encoding="UTF-8" standalone="no"?>
<svg viewBox="0 0 9 16" preserveAspectRatio="xMidYMid" version="1.1" xmlns="http://www.w3.org/2000/svg" xmlns:xlink="http://www.w3.org/1999/xlink">
    <!-- Generator: Sketch 47.1 (45422) - http://www.bohemiancoding.com/sketch -->
    <title>Fill 1</title>
    <desc>Created with Sketch.</desc>
    <defs></defs>
    <g id="Symbols" stroke="none" stroke-width="1" fill-rule="evenodd">
        <g id="Footer" transform="translate(-1049.000000, -272.000000)">
            <g transform="translate(0.000000, 62.000000)" id="Social">
                <g transform="translate(1038.000000, 202.000000)">
                    <g id="Facebook">
                        <path d="M12.0128592,16.1943943 L13.699309,16.1943943 L13.699309,23.1373515 C13.699309,23.2745182 13.8105437,23.3855048 13.9474623,23.3855048 L16.8069949,23.3855048 C16.9441616,23.3855048 17.0551482,23.2745182 17.0551482,23.1373515 L17.0551482,16.2270885 L18.9938459,16.2270885 C19.1200939,16.2270885 19.2260553,16.132356 19.2405723,16.0072867 L19.5350062,13.4511216 C19.5430091,13.3808321 19.5207374,13.3103566 19.4737123,13.2575 C19.4266873,13.2048915 19.3590655,13.1746167 19.2885279,13.1746167 L17.0551482,13.1746167 L17.0551482,11.5722909 C17.0551482,11.0893225 17.315461,10.8443332 17.8282078,10.8443332 L19.2885279,10.8443332 C19.4254465,10.8443332 19.5366812,10.7333466 19.5366812,10.5961799 L19.5366812,8.25007649 C19.5366812,8.11290975 19.4254465,8.00192319 19.2885279,8.00192319 L17.2761907,8.00192319 C17.2618599,8.00124077 17.2304065,8 17.1840638,8 C16.8349121,8 15.6212564,8.06855235 14.6625781,8.95042715 C13.6004199,9.92777893 13.7480091,11.0980699 13.783371,11.3008732 L13.783371,13.1746167 L12.0128592,13.1746167 C11.8756924,13.1746167 11.7647059,13.2856033 11.7647059,13.4227701 L11.7647059,15.946241 C11.7647059,16.0831596 11.8756924,16.1943943 12.0128592,16.1943943" id="Fill-1"></path>
                    </g>
                </g>
            </g>
        </g>
    </g>
</svg>