<?xml version="1.0" encoding="UTF-8" standalone="no"?>
<svg viewBox="0 0 15 16" preserveAspectRatio="xMidYMid" version="1.1" xmlns="http://www.w3.org/2000/svg" xmlns:xlink="http://www.w3.org/1999/xlink">
    <!-- Generator: Sketch 47.1 (45422) - http://www.bohemiancoding.com/sketch -->
    <title>Fill 4</title>
    <desc>Created with Sketch.</desc>
    <defs></defs>
    <g id="Symbols" stroke="none" stroke-width="1" fill-rule="evenodd">
        <g id="Footer" transform="translate(-1183.000000, -272.000000)">
            <g transform="translate(0.000000, 62.000000)" id="Social">
                <g transform="translate(1038.000000, 157.000000)">
                    <g id="Google-+" transform="translate(145.000000, 0.000000)">
                        <path d="M0.959673847,60.6469879 C1.0193735,57.0105616 4.31612115,53.8257758 7.90236475,53.9470941 C9.62038818,53.8661351 11.2355955,54.6245547 12.5515939,55.6895133 C11.9901328,56.3364642 11.4082981,56.9598722 10.7869005,57.543161 C9.20509652,56.4342396 6.95498807,56.1176108 5.3731841,57.3980595 C3.10980906,58.9852874 3.00699299,62.7331823 5.18366139,64.4417285 C7.30063013,66.3895481 11.3021654,65.4223649 11.886843,62.4398563 C10.5608947,62.4196766 9.2316297,62.4398563 7.9054445,62.3961336 C7.90236475,61.5939914 7.89904811,60.7918491 7.90236475,59.9897069 C10.1190698,59.9829803 12.335538,59.979617 14.5555597,59.9964334 C14.6886994,61.8837139 14.4427937,63.8923127 13.299261,65.4526344 C11.567971,67.9229635 8.09165057,68.644387 5.3798174,67.5859148 C2.65779739,66.5346496 0.73035136,63.6194066 0.959673847,60.6469879" id="Fill-4"></path>
                    </g>
                </g>
            </g>
        </g>
    </g>
</svg>