<svg width="21px" height="20px" viewBox="0 0 21 20" version="1.1" xmlns="http://www.w3.org/2000/svg" xmlns:xlink="http://www.w3.org/1999/xlink">
    <g id="Welcome" stroke="none" stroke-width="1" fill-rule="evenodd">
        <g id="v2.1" transform="translate(-649.000000, -4389.000000)">
            <g id="Group-21" transform="translate(251.000000, 4380.000000)">
                <path d="M416.505786,25.1354418 C416.505786,26.1912292 415.647518,27.0518488 414.589379,27.0518488 L402.323198,27.0518488 C401.265059,27.0518488 400.406791,26.1912292 400.406791,25.1354418 L400.406791,16.9477985 L403.391918,16.9477985 C403.133262,17.5815061 402.98865,18.2739992 402.98865,18.9994121 C402.98865,22.0151079 405.44118,24.46999 408.4557,24.46999 C411.471396,24.46999 413.923927,22.0151079 413.923927,18.9994121 C413.923927,18.2739992 413.778139,17.5815061 413.520658,16.9477985 L416.505786,16.9477985 L416.505786,25.1354418 Z M405.603428,16.9477985 C406.243015,16.0601376 407.281166,15.4793369 408.4557,15.4793369 C409.630235,15.4793369 410.669562,16.0601376 411.309148,16.9477985 C411.727701,17.5262477 411.975776,18.234025 411.975776,18.9994121 C411.975776,20.9416848 410.396797,22.5194874 408.4557,22.5194874 C406.515779,22.5194874 404.936801,20.9416848 404.936801,18.9994121 C404.936801,18.234025 405.186051,17.5262477 405.603428,16.9477985 Z M415.698073,11.305567 L416.14014,11.3032156 L416.14014,11.7441068 L416.14014,14.6939627 L412.76115,14.7045441 L412.750568,11.3149727 L415.698073,11.305567 Z M414.589379,9 L402.323198,9 C400.191636,9 398.457464,10.734172 398.457464,12.8645582 L398.457464,16.9477985 L398.457464,25.1354418 C398.457464,27.265828 400.191636,29 402.323198,29 L414.589379,29 C416.720941,29 418.453937,27.265828 418.453937,25.1354418 L418.453937,16.9477985 L418.453937,12.8645582 C418.453937,10.734172 416.720941,9 414.589379,9 Z" id="Fill-1"></path>
            </g>
        </g>
    </g>
</svg>
