<?xml version="1.0" encoding="UTF-8" standalone="no"?>
<svg viewBox="0 0 15 15" preserveAspectRatio="xMidYMid" version="1.1" xmlns="http://www.w3.org/2000/svg" xmlns:xlink="http://www.w3.org/1999/xlink">
    <!-- Generator: Sketch 47.1 (45422) - http://www.bohemiancoding.com/sketch -->
    <title>Fill 1</title>
    <desc>Created with Sketch.</desc>
    <defs></defs>
    <g id="Symbols" stroke="none" stroke-width="1" fill-rule="evenodd">
        <g id="Footer" transform="translate(-1160.000000, -218.000000)">
            <g transform="translate(0.000000, 62.000000)" id="Social">
                <g transform="translate(1038.000000, 149.000000)">
                    <g id="LinkedIn" transform="translate(113.000000, 0.000000)">
                        <path d="M23.5553514,21.6472 L20.6247576,21.6472 L20.6247576,17.0616633 C20.6247576,15.9676994 20.6060949,14.5608607 19.1021004,14.5608607 C17.5766986,14.5608607 17.3445126,15.7530783 17.3445126,16.9831702 L17.3445126,21.6472 L14.4172123,21.6472 L14.4172123,12.2170444 L17.2264984,12.2170444 L17.2264984,13.5064178 L17.2665683,13.5064178 C17.6573874,12.7648497 18.6135766,11.9832117 20.0396269,11.9832117 C23.0069972,11.9832117 23.5553514,13.9356601 23.5553514,16.4754348 L23.5553514,21.6472 Z M11.1122666,10.9287688 C10.1708977,10.9287688 9.41176471,10.1674402 9.41176471,9.22881582 C9.41176471,8.29074039 10.1708977,7.52941176 11.1122666,7.52941176 C12.0497931,7.52941176 12.8111217,8.29074039 12.8111217,9.22881582 C12.8111217,10.1674402 12.0497931,10.9287688 11.1122666,10.9287688 L11.1122666,10.9287688 Z M9.64449963,21.6472 L12.5783868,21.6472 L12.5783868,12.2170444 L9.64449963,12.2170444 L9.64449963,21.6472 Z" id="Fill-1"></path>
                    </g>
                </g>
            </g>
        </g>
    </g>
</svg>