
<svg width="344px" height="44px" viewBox="0 0 344 44" version="1.1" xmlns="http://www.w3.org/2000/svg" xmlns:xlink="http://www.w3.org/1999/xlink">
    <!-- Generator: Sketch 51.2 (57519) - http://www.bohemiancoding.com/sketch -->
    <desc>Created with Sketch.</desc>
    <defs>
        <polygon id="path-1" points="0.071919759 0.647762044 20.42382 0.647762044 20.42382 21 0.071919759 21"></polygon>
        <polygon id="path-3" points="0 0.015606106 48.2599 0.015606106 48.2599 9.35164504 0 9.35164504"></polygon>
        <polygon id="path-5" points="0 43.9638 343.211 43.9638 343.211 -0.0002 0 -0.0002"></polygon>
    </defs>
    <g id="Symbols" stroke="none" stroke-width="1" fill="none" fill-rule="evenodd">
        <g id="Brand-/-Logo-/-White">
            <g id="PS-Logo">
                <path d="M31.159,27.3022 C33.577,25.3352 35.89,23.2212 38.432,21.4292 C44.96,16.8302 52.362,14.0722 59.911,11.7052 C65.161,10.0592 70.459,8.5672 75.799,7.1352 C63.354,12.9542 51.68,19.6612 44.933,32.6962 C40.388,31.0552 35.858,29.4212 31.33,27.7862 C31.272,27.6252 31.216,27.4642 31.159,27.3022" id="Fill-1" fill="#FFFFFF"></path>
                <path d="M272.1571,23.7041 L272.1571,43.2141 C270.3151,43.2141 268.5421,43.2701 266.7771,43.1721 C266.3861,43.1501 265.9471,42.6441 265.6611,42.2631 C262.4101,37.9221 259.1851,33.5631 255.8521,29.0731 L255.8521,43.1481 L251.2881,43.1481 L251.2881,23.6401 C253.0951,23.6401 254.9061,23.5841 256.7091,23.6841 C257.0911,23.7051 257.5091,24.2441 257.7951,24.6291 C260.8811,28.7871 263.9431,32.9621 267.0141,37.1321 C267.1551,37.3241 267.3141,37.5021 267.6611,37.9261 L267.6611,23.7041 L272.1571,23.7041 Z" id="Fill-3" fill="#FFFFFF"></path>
                <path d="M74.8905,36.9941 C75.6045,39.6091 77.6615,40.2591 79.9045,40.3761 C81.3155,40.4491 82.7725,40.2141 84.1635,39.9111 C85.2035,39.6851 86.0065,38.9401 85.9875,37.7491 C85.9665,36.5101 85.0725,35.9381 83.9985,35.7861 C81.4405,35.4221 78.8635,35.1891 76.3025,34.8351 C75.4305,34.7151 74.5575,34.4681 73.7355,34.1481 C71.8925,33.4301 70.7265,32.0931 70.5285,30.0811 C70.3165,27.9321 71.0655,26.1391 72.8545,24.8911 C75.6275,22.9561 78.8045,22.8051 82.0195,23.0251 C84.2395,23.1771 86.3795,23.6781 88.2535,24.9901 C89.6215,25.9481 90.3685,27.2461 90.5285,29.0701 C88.9985,29.0701 87.5235,29.0781 86.0475,29.0591 C85.8595,29.0571 85.5895,28.9581 85.4985,28.8151 C83.6595,25.9241 80.8675,26.3101 78.1015,26.6751 C77.6135,26.7391 77.0175,26.8991 76.7135,27.2341 C76.2415,27.7561 75.6415,28.5111 75.7185,29.0821 C75.7925,29.6301 76.6025,30.3921 77.1915,30.5011 C79.3965,30.9071 81.6485,31.0521 83.8735,31.3601 C85.0865,31.5281 86.3145,31.7221 87.4775,32.0861 C89.6755,32.7741 91.1415,34.2141 91.3715,36.6091 C91.6155,39.1351 90.5925,41.0801 88.4205,42.3731 C86.3895,43.5831 84.0975,43.9831 81.8055,43.8911 C79.3275,43.7931 76.8005,43.5881 74.4115,42.9741 C71.3805,42.1961 69.8245,39.7571 70.1235,36.9941 L74.8905,36.9941 Z" id="Fill-5" fill="#FFFFFF"></path>
                <path d="M324.826,27.4687 L324.826,27.4017 C323.81,27.4017 322.787,27.3317 321.784,27.4407 C321.446,27.4767 320.91,27.9487 320.889,28.2517 C320.794,29.6417 320.808,31.0427 320.882,32.4357 C320.896,32.7157 321.334,33.2037 321.58,33.2067 C323.776,33.2287 325.983,33.2807 328.166,33.0877 C329.904,32.9327 330.922,31.7167 330.908,30.2857 C330.893,28.8147 329.779,27.6777 327.994,27.4897 C326.949,27.3787 325.883,27.4687 324.826,27.4687 M331.033,36.3647 C332.795,38.6327 334.497,40.8237 336.393,43.2647 C334.46,43.2647 332.826,43.3047 331.197,43.2327 C330.858,43.2187 330.461,42.8537 330.22,42.5487 C329.007,41.0187 327.805,39.4777 326.666,37.8937 C326.141,37.1647 325.552,36.8277 324.644,36.8967 C323.716,36.9687 322.776,36.9507 321.845,36.9067 C321.053,36.8687 320.814,37.2007 320.832,37.9597 C320.873,39.6887 320.846,41.4187 320.846,43.1957 L316.147,43.1957 L316.147,23.8517 C316.228,23.7927 316.296,23.6997 316.363,23.7007 C321.024,23.7707 325.722,23.5177 330.337,24.0197 C334.784,24.5037 336.93,28.6767 335.305,32.6257 C334.712,34.0697 334.118,34.5977 331.033,36.3647" id="Fill-7" fill="#FFFFFF"></path>
                <path d="M144.5409,33.3725 C147.2429,33.2365 149.8539,33.2045 152.4359,32.9085 C153.1219,32.8295 153.9399,32.0615 154.3069,31.3945 C155.2039,29.7615 154.1429,27.8395 152.0679,27.5965 C149.8089,27.3325 147.5039,27.4365 145.2199,27.4435 C144.9929,27.4445 144.5799,27.8735 144.5709,28.1155 C144.5139,29.7605 144.5409,31.4075 144.5409,33.3725 M154.6909,36.3185 C156.4919,38.6295 158.1779,40.7925 160.0839,43.2395 C158.0769,43.2395 156.3629,43.3015 154.6619,43.1915 C154.2829,43.1675 153.8979,42.5775 153.5929,42.1865 C152.4149,40.6855 151.3069,39.1265 150.0829,37.6645 C149.7609,37.2775 149.1389,37.0145 148.6209,36.9455 C147.7449,36.8295 146.8379,36.9765 145.9539,36.8965 C144.8589,36.7985 144.4319,37.1535 144.4979,38.3055 C144.5909,39.9025 144.5209,41.5085 144.5209,43.2545 C143.0599,43.2545 141.7579,43.2545 140.4549,43.2535 C139.5619,43.2535 139.7439,42.5695 139.7409,42.0635 C139.7229,39.0515 139.7289,36.0385 139.7289,33.0255 C139.7289,30.3095 139.7569,27.5945 139.7169,24.8785 C139.7039,23.9905 139.8989,23.5875 140.9109,23.6055 C144.4739,23.6675 148.0399,23.5965 151.6029,23.6675 C152.7329,23.6895 153.8919,23.8825 154.9789,24.1995 C157.7239,25.0015 159.2579,26.9285 159.4389,29.5895 C159.6359,32.4705 158.3979,34.5535 155.7469,35.8075 C155.4469,35.9495 155.1479,36.0965 154.6909,36.3185" id="Fill-9" fill="#FFFFFF"></path>
                <path d="M290.3954,31.4233 L300.2334,31.4233 L300.2334,35.2893 C299.4384,35.2893 298.6904,35.2883 297.9434,35.2893 C295.7784,35.2923 293.6124,35.3063 291.4474,35.2913 C290.8124,35.2873 290.4464,35.3983 290.3824,36.1713 C290.1174,39.3983 290.0904,39.3973 293.3134,39.3963 C296.3284,39.3953 299.3434,39.4223 302.3574,39.3703 C303.3064,39.3543 303.6664,39.6573 303.5844,40.6103 C303.5174,41.4043 303.5714,42.2093 303.5714,43.1163 L285.7264,43.1163 C285.6974,42.7023 285.6424,42.2903 285.6414,41.8773 C285.6364,36.1873 285.6444,30.4973 285.6304,24.8063 C285.6284,24.0963 285.6514,23.6023 286.6114,23.6093 C292.0034,23.6483 297.3974,23.6303 302.7904,23.6373 C302.9944,23.6373 303.1984,23.6873 303.4844,23.7243 L303.4844,27.4393 L301.5784,27.4393 C298.2234,27.4403 294.8694,27.4603 291.5144,27.4263 C290.7034,27.4183 290.3404,27.6543 290.3844,28.5043 C290.4324,29.4233 290.3954,30.3473 290.3954,31.4233" id="Fill-11" fill="#FFFFFF"></path>
                <path d="M64.1073,9.5288 C59.5733,10.6618 55.1083,11.6628 50.7113,12.9028 C41.9873,15.3618 33.7733,18.9098 26.6383,24.6588 C26.2903,24.9398 25.5753,25.1328 25.2083,24.9688 C21.8053,23.4478 18.4423,21.8408 14.7833,20.1248 C15.6443,19.6168 16.2543,19.2158 16.9013,18.8838 C23.0713,15.7208 29.6863,13.8968 36.4283,12.4898 C43.4113,11.0338 50.4453,9.9698 57.6083,9.9348 C59.7583,9.9248 61.9083,9.6728 64.1073,9.5288" id="Fill-13" fill="#FFFFFF"></path>
                <g id="Group-17" transform="translate(105.000000, 22.963800)">
                    <mask id="mask-2" fill="white">
                        <use xlink:href="#path-1"></use>
                    </mask>
                    <g id="Clip-16"></g>
                    <path d="M4.9061,0.6617 C4.9061,2.6857 4.9041,4.5427 4.9071,6.3987 C4.9101,8.6477 4.8781,10.8987 4.9331,13.1467 C4.9861,15.2537 5.8751,16.4737 7.9271,16.8177 C9.4001,17.0647 10.9831,17.0807 12.4541,16.8287 C14.6951,16.4457 15.5201,15.2857 15.5441,12.9967 C15.5801,9.4747 15.5621,5.9517 15.5761,2.4287 C15.5791,1.8907 15.6341,1.3517 15.6721,0.6677 C17.0741,0.6677 18.3811,0.6267 19.6801,0.7037 C19.9331,0.7187 20.3621,1.1967 20.3651,1.4637 C20.3961,5.4947 20.5021,9.5327 20.3191,13.5567 C20.1541,17.1897 18.3151,19.2847 14.7931,20.3087 C11.3061,21.3227 7.8311,21.2627 4.4521,19.8527 C1.7771,18.7367 0.2461,16.6977 0.1701,13.7847 C0.0641,9.7557 0.1141,5.7227 0.0721,1.6917 C0.0641,0.9367 0.3211,0.6197 1.1051,0.6497 C2.3221,0.6957 3.5411,0.6617 4.9061,0.6617" id="Fill-15" fill="#FFFFFF" mask="url(#mask-2)"></path>
                </g>
                <g id="Group-20" transform="translate(0.000000, 7.963800)">
                    <mask id="mask-4" fill="white">
                        <use xlink:href="#path-3"></use>
                    </mask>
                    <g id="Clip-19"></g>
                    <path d="M-0.0001,4.1162 C7.7369,0.0102 36.9499,-1.4318 48.2599,1.7412 C45.5529,1.9622 43.1379,2.1362 40.7279,2.3612 C30.3869,3.3302 20.2049,5.0102 10.5849,9.1812 C10.2399,9.3312 9.7139,9.4282 9.4199,9.2722 C6.2979,7.6052 3.2049,5.8812 -0.0001,4.1162" id="Fill-18" fill="#FFFFFF" mask="url(#mask-4)"></path>
                </g>
                <path d="M173.4979,23.6313 C178.9739,23.6313 184.3129,23.6233 189.6529,23.6533 C189.9389,23.6553 190.4509,23.9623 190.4709,24.1643 C190.5599,25.0883 190.5789,26.0343 190.4599,26.9503 C190.4329,27.1573 189.7489,27.4133 189.3649,27.4183 C186.1839,27.4553 183.0009,27.4993 179.8219,27.4103 C178.5599,27.3753 178.1059,27.6833 178.1709,29.0153 C178.3039,31.7383 177.8989,31.2953 180.4679,31.3273 C182.6309,31.3543 184.7949,31.3573 186.9569,31.3153 C187.8119,31.2983 188.1709,31.5433 188.1369,32.4643 C188.0219,35.6463 188.5989,35.1013 185.4499,35.1523 C183.4149,35.1853 181.3779,35.1923 179.3429,35.1503 C178.4609,35.1323 178.1609,35.4423 178.1819,36.3283 C178.2319,38.5673 178.1979,40.8063 178.1979,43.1343 L173.4979,43.1343 L173.4979,23.6313 Z" id="Fill-21" fill="#FFFFFF"></path>
                <path d="M203.7967,23.7085 L208.5127,23.7085 L208.5127,25.2785 C208.5127,29.5605 208.5457,33.8415 208.4867,38.1225 C208.4727,39.1615 208.8287,39.4305 209.7977,39.4155 C212.7147,39.3715 215.6337,39.3995 218.6647,39.3995 L218.6647,43.1155 L203.7967,43.1155 L203.7967,23.7085 Z" id="Fill-23" fill="#FFFFFF"></path>
                <mask id="mask-6" fill="white">
                    <use xlink:href="#path-5"></use>
                </mask>
                <g id="Clip-26"></g>
                <polygon id="Fill-25" fill="#FFFFFF" mask="url(#mask-6)" points="231.844 43.1358 236.482 43.1358 236.482 23.7008 231.844 23.7008"></polygon>
                <path d="M155.2733,7.542 L158.2003,7.542 C157.6763,6.433 157.2403,5.51 156.6603,4.283 C156.1233,5.546 155.7213,6.488 155.2733,7.542 M163.2843,12.1 C162.5293,12.1 162.0203,12.048 161.5263,12.111 C160.6313,12.224 160.0593,11.904 159.8203,11.025 C159.5413,9.996 158.8693,9.629 157.8283,9.764 C157.2853,9.834 156.7153,9.844 156.1753,9.765 C154.8143,9.564 153.9243,9.957 153.5043,11.383 C153.4063,11.718 152.7183,11.976 152.2583,12.082 C151.7413,12.202 151.1743,12.11 150.4883,12.11 C150.6173,11.699 150.6703,11.423 150.7873,11.177 C152.2003,8.185 153.6693,5.218 155.0123,2.196 C155.4523,1.207 156.1443,1.266 156.9603,1.222 C157.7773,1.177 158.2633,1.393 158.6283,2.197 C160.0993,5.434 161.6483,8.637 163.2843,12.1" id="Fill-27" fill="#FFFFFF" mask="url(#mask-6)"></path>
                <path d="M128.494,6.5986 C129.802,6.5986 131.041,6.7226 132.235,6.5416 C132.765,6.4626 133.445,5.8456 133.605,5.3316 C133.745,4.8836 133.33,3.8086 133.022,3.7516 C131.598,3.4876 130.127,3.4816 128.673,3.3826 C128.617,4.3916 128.56,5.4006 128.494,6.5986 M128.351,12.0276 L125.847,12.0276 L125.847,1.3886 C128.507,1.3886 131.166,1.2206 133.79,1.4496 C135.438,1.5936 136.436,3.1646 136.492,4.8326 C136.548,6.5096 135.658,7.9306 133.952,8.3396 C132.574,8.6696 131.109,8.7366 129.682,8.7376 C128.607,8.7386 128.228,9.0966 128.341,10.1366 C128.403,10.7186 128.351,11.3126 128.351,12.0276" id="Fill-28" fill="#FFFFFF" mask="url(#mask-6)"></path>
                <path d="M189.5907,3.1987 C188.3577,3.6427 187.3837,4.1537 186.0887,3.3037 C184.4897,2.2557 182.1307,3.0017 181.1437,4.5547 C180.1127,6.1767 180.4187,8.4827 181.8207,9.6647 C183.2317,10.8527 185.4977,10.7567 186.9297,9.4467 C187.5677,8.8637 187.5677,8.8637 189.9397,9.6087 C189.3147,11.1207 188.1027,11.9777 186.6267,12.2097 C185.1457,12.4417 183.5647,12.5207 182.0987,12.2607 C179.4137,11.7827 177.8187,9.6917 177.7637,7.0507 C177.7007,4.0507 179.1317,2.0057 181.8547,1.2067 C184.9357,0.3027 187.8467,1.0167 189.5907,3.1987" id="Fill-29" fill="#FFFFFF" mask="url(#mask-6)"></path>
                <path d="M282.0692,9.4423 C281.0472,11.3533 279.6032,12.1513 277.8672,12.3813 C276.7882,12.5253 275.6582,12.5123 274.5772,12.3723 C271.8542,12.0193 269.9452,10.0563 269.7592,7.5743 C269.5152,4.3023 270.9232,2.0853 273.8022,1.2093 C276.8042,0.2963 279.8012,1.0233 281.5212,3.1453 C280.4082,3.5953 279.4872,4.2313 278.1812,3.3503 C276.6072,2.2883 274.2132,2.9413 273.1952,4.4393 C272.0502,6.1223 272.3012,8.3873 273.7702,9.6363 C275.2222,10.8703 277.4472,10.8353 278.8542,9.4573 C279.9212,8.4143 280.8052,9.5993 282.0692,9.4423" id="Fill-30" fill="#FFFFFF" mask="url(#mask-6)"></path>
                <path d="M228.3338,7.5937 L228.3338,11.8467 C228.1308,11.9577 228.0268,12.0577 227.9158,12.0677 C225.7458,12.2537 225.7458,12.2517 225.7448,10.0807 L225.7448,1.3377 L235.1838,1.3377 L235.1838,3.2647 L228.3988,3.2647 L228.3988,5.4817 L233.0818,5.4817 L233.0818,7.5937 L228.3338,7.5937 Z" id="Fill-31" fill="#FFFFFF" mask="url(#mask-6)"></path>
                <path d="M27.4432,1.7509 C27.0142,2.9599 26.8212,3.8909 26.3452,4.6429 C26.1792,4.9049 25.3202,4.7299 24.5102,4.7679 C24.9842,3.2139 25.3382,1.7979 25.8612,0.4479 C26.1282,-0.2411 28.1592,-0.0541 28.6242,0.6519 C28.9022,1.0759 29.1252,1.5369 29.3832,1.9739 C29.6162,2.3659 29.8632,2.7499 30.2412,3.3569 C30.7512,2.4719 31.2522,1.7929 31.5532,1.0359 C32.0292,-0.1591 33.0152,-0.0421 33.8842,0.1359 C34.2722,0.2149 34.6492,0.8639 34.8312,1.3329 C35.2402,2.3859 35.5232,3.4879 35.8572,4.5699 C35.7792,4.6869 35.7012,4.8039 35.6232,4.9209 C34.9902,4.6969 34.1392,4.6479 33.7782,4.2029 C33.3452,3.6689 33.3302,2.7959 33.0402,1.7239 C32.4982,2.6319 32.1082,3.2889 31.7142,3.9439 C30.9902,5.1469 29.4072,5.1259 28.6922,3.9019 C28.3162,3.2609 27.9452,2.6169 27.4432,1.7509" id="Fill-32" fill="#FFFFFF" mask="url(#mask-6)"></path>
                <path d="M209.2059,12.0327 L206.6709,12.0327 L206.6709,1.2467 C207.3109,1.2467 207.9709,1.1917 208.6109,1.2767 C208.8329,1.3057 209.1789,1.6807 209.1809,1.9007 C209.2179,5.2357 209.2059,8.5707 209.2059,12.0327" id="Fill-33" fill="#FFFFFF" mask="url(#mask-6)"></path>
                <polygon id="Fill-34" fill="#FFFFFF" mask="url(#mask-6)" points="251.087 12.0448 253.502 12.0448 253.502 1.3128 251.087 1.3128"></polygon>
                <path d="M49.1669,1.0092 C49.4399,1.6502 49.6319,2.4612 49.8119,2.4582 C50.6489,2.4462 51.4829,2.2092 52.3179,2.0532 C52.1459,1.7052 52.0209,1.0972 51.7949,1.0572 C51.0709,0.9282 50.3099,1.0092 49.1669,1.0092 M53.6719,3.3832 C53.8889,3.6432 54.2819,4.1162 54.7629,4.6932 C53.4769,4.7902 52.4119,4.9652 51.5999,3.7652 C51.3529,3.4012 50.4489,3.2772 49.9159,3.3852 C49.5679,3.4562 49.3459,4.1432 48.9729,4.6932 L47.3609,4.6932 L47.3609,0.1102 C48.8909,0.1102 50.4979,0.1072 52.1049,0.1132 C52.3139,0.1142 52.5539,0.1132 52.7269,0.2072 C53.3519,0.5482 54.2179,0.8022 54.4759,1.3382 C54.6639,1.7302 54.0439,2.5122 53.6719,3.3832" id="Fill-35" fill="#FFFFFF" mask="url(#mask-6)"></path>
                <path d="M69.6356,0.1938 C69.6826,0.7828 69.7266,1.3168 69.7846,2.0478 C71.3726,1.1718 72.4726,-0.7062 74.6306,0.2778 C73.8366,0.9218 73.0346,1.5698 72.1036,2.3248 C73.0626,3.1028 73.9306,3.8068 74.8216,4.5298 C72.6096,5.5438 71.4236,3.8178 69.8186,2.5918 C69.7356,3.3928 69.6736,3.9858 69.6046,4.6648 L67.5466,4.6648 C67.5466,3.3518 67.5026,2.0518 67.5626,0.7568 C67.5976,0.0058 67.7916,-0.0262 69.6356,0.1938" id="Fill-36" fill="#FFFFFF" mask="url(#mask-6)"></path>
                <path d="M60.9891,1.0268 C60.5431,1.8338 60.2371,2.3838 59.8761,3.0378 L62.1411,3.0378 C61.7531,2.3598 61.4521,1.8348 60.9891,1.0268 M56.8741,4.5218 C57.7901,3.1638 58.6771,1.7848 59.6351,0.4578 C60.0761,-0.1512 62.1921,-0.1052 62.6351,0.5148 C63.5631,1.8178 64.4291,3.1648 65.4211,4.6408 C64.3851,4.7298 63.6791,4.7288 62.7471,4.2618 C61.7901,3.7818 60.3981,4.0538 59.2171,4.1818 C58.5051,4.2588 57.8311,4.6878 57.1401,4.9588 C57.0511,4.8128 56.9631,4.6678 56.8741,4.5218" id="Fill-37" fill="#FFFFFF" mask="url(#mask-6)"></path>
                <path d="M17.1297,3.1421 C18.0557,3.0991 18.6497,3.0711 19.5287,3.0291 C19.0207,2.2841 18.6757,1.7771 18.2327,1.1281 C17.8357,1.8531 17.5617,2.3541 17.1297,3.1421 M22.4617,4.8691 C21.0947,4.5641 19.7297,4.0321 18.3587,4.0201 C17.0297,4.0081 15.6957,4.5301 14.1617,4.5691 C15.1257,3.1581 15.9307,1.5831 17.1317,0.4171 C17.6007,-0.0389 19.3207,0.0471 19.8397,0.5441 C20.9947,1.6511 21.7517,3.1731 22.6707,4.5261 C22.6017,4.6411 22.5317,4.7551 22.4617,4.8691" id="Fill-38" fill="#FFFFFF" mask="url(#mask-6)"></path>
                <path d="M42.1659,1.2334 L42.1659,4.6624 L39.9679,4.6624 L39.9679,1.1664 C38.9669,1.1204 38.1029,1.0814 37.2379,1.0434 L37.0709,0.6654 C37.3789,0.4674 37.6829,0.1064 37.9939,0.1004 C40.2779,0.0514 42.5639,0.0734 44.8559,0.0734 C44.8009,0.8854 44.8009,0.8854 42.1659,1.2334" id="Fill-39" fill="#FFFFFF" mask="url(#mask-6)"></path>
                <path d="M342.7166,40.6504 C342.3946,41.4924 342.0706,42.3354 341.6366,43.4694 C341.2236,42.3994 340.9026,41.5694 340.5816,40.7394 C340.4986,40.7404 340.4166,40.7404 340.3336,40.7404 L340.3336,43.1044 C340.2386,43.1004 340.1446,43.0954 340.0496,43.0914 L340.0496,39.7234 L340.4776,39.5864 C340.8306,40.4884 341.1856,41.3914 341.6296,42.5254 C342.0776,41.3714 342.4346,40.4544 342.7906,39.5374 C342.9316,39.5784 343.0706,39.6184 343.2106,39.6594 L343.2106,43.0854 C343.1556,43.0964 343.1006,43.1064 343.0456,43.1174 C343.0066,42.3074 342.9686,41.4974 342.9306,40.6874 C342.8596,40.6754 342.7876,40.6624 342.7166,40.6504" id="Fill-40" fill="#FFFFFF" mask="url(#mask-6)"></path>
                <path d="M338.1122,43.4951 C339.3522,42.7571 339.3622,42.5001 338.2392,41.3821 C337.9572,41.1001 337.6972,40.5281 337.7982,40.2061 C337.9022,39.8741 338.4592,39.6831 338.8172,39.4311 C338.8852,39.5261 338.9542,39.6211 339.0212,39.7171 C338.7122,39.9261 338.4032,40.1351 338.0932,40.3431 C338.3612,40.6881 338.6862,41.0031 338.8812,41.3861 C339.1062,41.8281 339.4322,42.3951 339.3112,42.7821 C339.2082,43.1121 338.5342,43.2641 338.1122,43.4951" id="Fill-41" fill="#FFFFFF" mask="url(#mask-6)"></path>
            </g>
        </g>
    </g>
</svg>
