<?xml version="1.0" encoding="UTF-8" standalone="no"?>
<svg viewBox="0 0 17 15" preserveAspectRatio="xMidYMid" version="1.1" xmlns="http://www.w3.org/2000/svg" xmlns:xlink="http://www.w3.org/1999/xlink">
    <!-- Generator: Sketch 47.1 (45422) - http://www.bohemiancoding.com/sketch -->
    <title>Fill 1</title>
    <desc>Created with Sketch.</desc>
    <defs></defs>
    <g id="Symbols" stroke="none" stroke-width="1" fill-rule="evenodd">
        <g id="Footer" transform="translate(-1092.000000, -273.000000)">
            <g transform="translate(0.000000, 62.000000)" id="Social">
                <g transform="translate(1038.000000, 202.000000)">
                    <g id="Twitter" transform="translate(46.000000, 0.000000)">
                        <path d="M22.8413807,13.296988 C22.8413807,13.145824 22.8346275,13.0013784 22.8278743,12.8502144 C23.4744924,12.3782468 24.0282542,11.7803092 24.4705882,11.0983915 C23.8830605,11.3604091 23.2499488,11.5384467 22.5847594,11.6106696 C23.2634552,11.1974879 23.7851393,10.5340459 24.0282542,9.74127469 C23.3951424,10.1208643 22.6894339,10.3963187 21.9448945,10.5340459 C21.3438604,9.85884669 20.4929582,9.42550988 19.5508879,9.41207308 C17.7376559,9.38687908 16.2671483,10.9085967 16.2671483,12.818302 C16.2671483,13.087038 16.2924728,13.3490556 16.3515632,13.6043548 C13.6215854,13.4279968 11.2022544,12.0171328 9.5865532,9.88572029 C9.30291914,10.3963187 9.13746594,10.9942563 9.13746594,11.6308248 C9.13746594,12.843496 9.71824045,13.9201196 10.6012203,14.5499696 C10.0609649,14.523096 9.55278724,14.3652136 9.11045317,14.0964776 L9.11045317,14.1435064 C9.11045317,15.8348637 10.2449894,17.2474073 11.7492629,17.5816477 C11.4723821,17.660589 11.1819948,17.6992198 10.8848544,17.6992198 C10.6670639,17.6925014 10.4627799,17.6723462 10.265249,17.626997 C10.6805703,19.0177058 11.8944565,20.028825 13.3311981,20.0607374 C12.2034151,20.9861971 10.7936863,21.5438243 9.2556468,21.5371059 C8.99227231,21.5371059 8.72889783,21.5186303 8.47058824,21.4850383 C9.9225245,22.4827207 11.6496533,23.0588235 13.5034045,23.0588235 C19.5373815,23.0588235 22.8413807,17.8302286 22.8413807,13.296988" id="Fill-1"></path>
                    </g>
                </g>
            </g>
        </g>
    </g>
</svg>